<svg width="28" height="28" viewBox="0 0 28 28" fill="none" xmlns="http://www.w3.org/2000/svg">
<path d="M4.36546 21.6475C5.76546 23.3334 8.36946 23.3334 13.5798 23.3334H14.4198C19.6301 23.3334 22.2353 23.3334 23.6353 21.6475M4.36546 21.6475C2.96546 19.9605 3.44612 17.4009 4.40629 12.2792C5.08879 8.63919 5.42946 6.81802 6.72562 5.74235M23.6353 21.6475C25.0353 19.9605 24.5546 17.4009 23.5945 12.2792C22.912 8.63919 22.5701 6.81802 21.274 5.74235M21.274 5.74235C19.979 4.66669 18.1251 4.66669 14.421 4.66669H13.5786C9.87446 4.66669 8.02179 4.66669 6.72562 5.74235" stroke="black" stroke-width="1.5"/>
<path d="M10.6982 9.33337C10.9393 10.0165 11.3863 10.608 11.9776 11.0265C12.5689 11.4449 13.2755 11.6696 13.9999 11.6696C14.7243 11.6696 15.4309 11.4449 16.0222 11.0265C16.6135 10.608 17.0605 10.0165 17.3016 9.33337" stroke="black" stroke-width="1.5" stroke-linecap="round"/>
</svg>
